<svg width="72" height="73" viewBox="0 0 72 73" fill="none" xmlns="http://www.w3.org/2000/svg">
<path d="M22.2916 12.8971L30.862 17.6965L26.0626 9.12607L30.862 0.555664L22.2916 5.35509L13.7212 0.555664L18.5207 9.12607L13.7212 17.6965L22.2916 12.8971ZM63.4296 46.493L54.8592 41.6936L59.6586 50.264L54.8592 58.8344L63.4296 54.035L72 58.8344L67.2006 50.264L72 41.6936L63.4296 46.493ZM72 0.555664L63.4296 5.35509L54.8592 0.555664L59.6586 9.12607L54.8592 17.6965L63.4296 12.8971L72 17.6965L67.2006 9.12607L72 0.555664ZM45.8431 18.6906C44.5061 17.3537 42.3464 17.3537 41.0094 18.6906L1.00274 58.6973C-0.334246 60.0343 -0.334246 62.194 1.00274 63.531L9.02464 71.5529C10.3616 72.8899 12.5214 72.8899 13.8583 71.5529L53.8307 31.5805C55.1677 30.2436 55.1677 28.0838 53.8307 26.7468L45.8431 18.6906ZM42.3121 37.5113L35.0444 30.2436L43.4091 21.8788L50.6768 29.1465L42.3121 37.5113Z" fill="#202124"/>
</svg>
