<svg width="80" height="80" viewBox="0 0 80 80" fill="none" xmlns="http://www.w3.org/2000/svg">
<path fill-rule="evenodd" clip-rule="evenodd" d="M61.1784 62.0221H22.2201C10.4157 62.0221 0.792969 52.3994 0.792969 40.5951C0.792969 29.8426 8.93526 20.7653 19.4151 19.4017C23.5057 12.0776 31.2584 7.48047 39.7513 7.48047C51.3219 7.48047 60.9836 15.9734 62.8147 27.0376C71.7361 27.8557 78.7097 35.3746 78.7097 44.4909C78.7097 54.1526 70.8401 62.0221 61.1784 62.0221ZM39.7513 15.2721C33.5569 15.2721 27.9469 18.9342 25.4536 24.6611L24.4796 26.9596L21.9863 26.9986C14.5842 27.1155 8.58464 33.2319 8.58464 40.5951C8.58464 48.114 14.7011 54.2305 22.2201 54.2305H61.1784C66.5546 54.2305 70.918 49.8671 70.918 44.4909C70.918 39.1146 66.5546 34.7513 61.1784 34.7513H55.3347V30.8555C55.3347 22.2457 48.3611 15.2721 39.7513 15.2721ZM35.388 37.4784L46.0236 26.8428L51.4778 32.2969L35.388 48.3867L24.168 37.1667L29.6221 31.7126L35.388 37.4784Z" fill="white"/>
</svg>
