<svg focusable="false" aria-hidden="true" xmlns="http://www.w3.org/2000/svg" enable-background="new 0 0 24 24" height="24" viewBox="0 0 24 24" width="24"><g><rect fill="none" height="24" width="24"></rect></g><g><g><path d="M17.5,10c-0.6,0-1.8,0-1.8,0C14.84,7.11,12.17,5,9,5c-3.87,0-7,3.13-7,7c0,3.87,3.13,7,7,7c1.87,0,6.97,0,8.5,0 c2.49,0,4.5-2.01,4.5-4.5S19.99,10,17.5,10z M17.5,17H9c-2.76,0-5-2.24-5-5s2.24-5,5-5c2.19,0,4.16,1.47,4.78,3.57L14.21,12 l3.29,0c1.38,0,2.5,1.12,2.5,2.5C20,15.88,18.88,17,17.5,17z"></path><path d="M11.12,9.88C10.54,9.29,9.77,9,9,9S7.46,9.29,6.88,9.88c-1.17,1.17-1.17,3.07,0,4.24C7.46,14.71,8.23,15,9,15 c0.61,0,1.21-0.19,1.73-0.56l1.91,1.91l0.71-0.71l-1.91-1.91C12.27,12.56,12.17,10.93,11.12,9.88z M10.41,13.41 C10.04,13.79,9.53,14,9,14c-0.53,0-1.04-0.21-1.41-0.59c-0.78-0.78-0.78-2.05,0-2.83C7.96,10.21,8.47,10,9,10s1.04,0.21,1.41,0.59 C11.19,11.37,11.19,12.63,10.41,13.41z"></path></g></g></svg>