<svg width="25" height="25" viewBox="0 0 25 25" fill="none" xmlns="http://www.w3.org/2000/svg">
<path fill-rule="evenodd" clip-rule="evenodd" d="M24.344 8.5935C24.344 8.5935 24.114 6.9435 23.394 6.2235C22.484 5.2635 21.464 5.2635 20.994 5.2035C17.644 4.9585 12.604 4.9885 12.604 4.9885C12.604 4.9885 7.584 4.9585 4.234 5.1985C3.774 5.2585 2.754 5.2585 1.844 6.2185C1.124 6.9385 0.884004 8.5885 0.884004 8.5885C0.884004 8.5885 0.644004 10.5335 0.604004 12.4685V14.4935C0.644004 16.4335 0.884004 18.3685 0.884004 18.3685C0.884004 18.3685 1.124 20.0185 1.844 20.7485C2.754 21.6985 3.944 21.6685 4.484 21.7685C6.364 21.9485 12.394 21.9885 12.604 21.9885C12.604 21.9885 17.654 21.9985 21.004 21.7585C21.464 21.6985 22.484 21.6985 23.394 20.7385C24.114 20.0185 24.354 18.3685 24.354 18.3685C24.354 18.3685 24.594 16.4285 24.604 14.4935V12.4685C24.584 10.5335 24.344 8.5935 24.344 8.5935ZM10.174 16.9885V9.9785L16.604 13.6185L10.174 16.9885Z" fill="currentColor"></path>
</svg>