<svg aria-hidden="true" height="48" viewBox="0 0 48 48" width="48" xmlns="http://www.w3.org/2000/svg"><path clip-rule="evenodd" d="m10 11.7 14-5.4 14 5.4V21c0 10.6-6.2 18-14 20.8A21.2 21.2 0 0 1 10 21v-9.3Zm15.4-9.1a4 4 0 0 0-2.8 0L8.6 8A4 4 0 0 0 6 11.7V21c0 12.5 7.4 21.3 16.9 24.6.7.3 1.5.3 2.2 0A25.2 25.2 0 0 0 42 21v-9.3A4 4 0 0 0 39.4 8l-14-5.4ZM14 23a10 10 0 1 1 20 0 10 10 0 0 1-20 0Zm13.5-2.5a3.5 3.5 0 1 0-7 0 3.5 3.5 0 0 0 7 0Zm-9.6 7.6a8 8 0 0 0 12.2 0 10 10 0 0 0-12.2 0Z" fill-rule="evenodd"></path></svg>