<svg class="_searchIcon_9i05r_233" width="24" height="25" viewBox="0 0 24 25" fill="none" xmlns="http://www.w3.org/2000/svg" role="img">
<path fill-rule="evenodd" clip-rule="evenodd" d="M15.9133 14.4362L23.667 22.1899L21.6508 24.2061L13.8971 16.4524C12.4492 17.4943 10.7036 18.1303 8.79564 18.1303C3.93774 18.1303 0 14.1926 0 9.3347C0 4.4768 3.93774 0.539062 8.79564 0.539062C13.6535 0.539062 17.5913 4.4768 17.5913 9.3347C17.5913 11.2427 16.9553 12.9883 15.9133 14.4362ZM8.79564 3.24541C5.42623 3.24541 2.70635 5.96529 2.70635 9.3347C2.70635 12.7041 5.42623 15.424 8.79564 15.424C12.165 15.424 14.8849 12.7041 14.8849 9.3347C14.8849 5.96529 12.165 3.24541 8.79564 3.24541Z" fill="#5F6368"></path>
</svg>