<svg aria-hidden="true" height="20" viewBox="0 -960 960 960" width="20" xmlns="http://www.w3.org/2000/svg"><path d="M480-96q-71-16-132.5-54T241-241.5q-45-53.5-71-119T144-496v-232l336-136 336 136v232q0 70-26 135t-71 119q-45 54-106.5 92T480-96Zm0-48q17-5 33.5-10.5T546-168q-38-19-75.5-44T406-267q-7-8-6.5-17.5T408-301q8-7 17.5-7t16.5 8q29 32 71 58t86 45q13-9 25.5-18.5T648-236q-42-20-82.5-47T496-345q-7-8-6-17.5t9-16.5q8-7 17.5-6t16.5 9q28 34 69 60t82 44q17-20 30.5-42t24.5-46q-70-28-120.5-81.5T532-549l-39.5 32.5Q453-484 436-470q-18 14-39.5 17.5T351-454q-31-7-58-26.5T252-526q-4-8-3-15t7-13l20-19q20-19 50.5-47.5t66.5-62q36-33.5 69-63.5 18-17 34.5-28t32.5-19l-49-20-288 117v200q0 61 22 118.5T274.5-273q38.5 47 91 80.5T480-144Zm275-260q7-23 10-46t3-46v-200l-142-57q-29-9-59-3t-74 46q-26 23-54 49t-53.5 50.5q-25.5 24.5-47 45T304-533q11 12 26 20.5t31 12.5q9 2 21 2t23-8q8-7 27.5-22.5t39.5-32q20-16.5 35-29l15-12.5q8-7 18.5-5.5T557-597q34 54 82.5 110T755-404Z"></path></svg>