<svg focusable="false" aria-hidden="true" xmlns="http://www.w3.org/2000/svg" enable-background="new 0 0 24 24" height="24" viewBox="0 0 24 24" width="24"><g><rect fill="none" height="24" width="24"></rect></g><g><path d="M20.4,7.94l-6.58-6.39C13.45,1.18,12.98,1,12.5,1s-0.95,0.18-1.32,0.54L4.6,7.94c-0.71,0.69-0.8,1.81-0.22,2.61l6.9,9.54 C10.98,20.63,10.41,21,9.75,21c-0.78,0-1.47-0.52-1.68-1.27C7.61,18.12,6.13,17,4.46,17c-1.12,0-2.18,0.5-2.89,1.36l1.54,1.27 C3.44,19.23,3.93,19,4.46,19c0.78,0,1.47,0.52,1.68,1.27C6.6,21.88,8.08,23,9.75,23c1.4,0,2.6-0.77,3.25-1.91l7.62-10.55 C21.2,9.74,21.11,8.62,20.4,7.94z M12.5,18.37l-6.5-9l6.5-6.33L19,9.37L12.5,18.37z"></path></g></svg>