<svg width="80" height="80" viewBox="0 0 80 80" fill="none" xmlns="http://www.w3.org/2000/svg">
<path d="M26.9963 20.932L33.6629 24.6654L29.9296 17.9987L33.6629 11.332L26.9963 15.0654L20.3296 11.332L24.0629 17.9987L20.3296 24.6654L26.9963 20.932ZM58.9963 47.0654L52.3296 43.332L56.0629 49.9987L52.3296 56.6654L58.9963 52.932L65.6629 56.6654L61.9296 49.9987L65.6629 43.332L58.9963 47.0654ZM65.6629 11.332L58.9963 15.0654L52.3296 11.332L56.0629 17.9987L52.3296 24.6654L58.9963 20.932L65.6629 24.6654L61.9296 17.9987L65.6629 11.332ZM45.3162 25.4387C44.2762 24.3987 42.5962 24.3987 41.5562 25.4387L10.4362 56.5587C9.39625 57.5987 9.39625 59.2787 10.4362 60.3187L16.6763 66.5587C17.7163 67.5987 19.3963 67.5987 20.4363 66.5587L51.5296 35.4654C52.5696 34.4254 52.5696 32.7454 51.5296 31.7054L45.3162 25.4387ZM42.5696 40.0787L36.9163 34.4254L43.4229 27.9187L49.0762 33.572L42.5696 40.0787Z" fill="white"/>
</svg>
