<svg class="_logoIcon_h8bjx_116" width="23" height="24" viewBox="0 0 23 24" fill="none" xmlns="http://www.w3.org/2000/svg">
<path d="M5.76223 5.76019C6.5154 5.76019 7.26119 5.90854 7.95702 6.19676C8.65286 6.48499 9.28511 6.90744 9.81768 7.44001C10.3502 7.97258 10.7727 8.60483 11.0609 9.30067C11.3492 9.9965 11.4975 10.7423 11.4975 11.4955V12.0162H0.549092C0.411084 12.0159 0.278832 11.9609 0.181246 11.8633C0.0836591 11.7657 0.0286775 11.6335 0.0283205 11.4955C0.0281428 10.7424 0.176322 9.9966 0.464398 9.30077C0.752475 8.60494 1.1748 7.97268 1.70727 7.4401C2.23973 6.90751 2.87189 6.48503 3.56765 6.19679C4.2634 5.90855 5.00913 5.76019 5.76223 5.76019Z" fill="#F6B704"></path>
<path d="M17.7536 6.28097C17.7536 7.03414 17.6053 7.77993 17.317 8.47576C17.0288 9.1716 16.6063 9.80385 16.0738 10.3364C15.5412 10.869 14.909 11.2914 14.2131 11.5797C13.5173 11.8679 12.7715 12.0162 12.0183 12.0162H11.4976V1.06783C11.4976 0.929712 11.5524 0.797253 11.6501 0.699589C11.7478 0.601925 11.8802 0.547058 12.0183 0.547058C12.7714 0.546881 13.5172 0.695062 14.213 0.983138C14.9088 1.27121 15.5411 1.69354 16.0737 2.226C16.6063 2.75846 17.0288 3.39063 17.317 4.08639C17.6052 4.78214 17.7536 5.52787 17.7536 6.28097Z" fill="#E54335"></path>
<path d="M17.2328 18.2723C15.7117 18.2723 14.2529 17.668 13.1774 16.5925C12.1018 15.5169 11.4976 14.0581 11.4976 12.537V12.0162H22.446C22.5841 12.0162 22.7165 12.0711 22.8142 12.1688C22.9119 12.2664 22.9667 12.3989 22.9667 12.537C22.9669 13.2901 22.8187 14.0359 22.5307 14.7317C22.2426 15.4275 21.8203 16.0598 21.2878 16.5924C20.7553 17.125 20.1232 17.5474 19.4274 17.8357C18.7317 18.1239 17.9859 18.2723 17.2328 18.2723Z" fill="#4280EF"></path>
<path d="M5.2417 17.7488C5.2417 16.9957 5.39006 16.25 5.6783 15.5542C5.96654 14.8585 6.38902 14.2263 6.9216 13.6938C7.45419 13.1614 8.08645 12.739 8.78228 12.451C9.4781 12.1629 10.2239 12.0147 10.977 12.0149H11.4977V22.9633C11.4974 23.1013 11.4424 23.2336 11.3448 23.3311C11.2472 23.4287 11.115 23.4837 10.977 23.4841C10.2238 23.4841 9.47801 23.3357 8.78217 23.0475C8.08634 22.7593 7.45409 22.3368 6.92152 21.8042C6.38895 21.2717 5.96649 20.6394 5.67827 19.9436C5.39005 19.2478 5.2417 18.502 5.2417 17.7488Z" fill="#34A353"></path>
</svg>