<svg xmlns="http://www.w3.org/2000/svg" style="display: none" id="iconsMap">
      <symbol id="chevron-left" viewBox="0 0 24 24">
        <path d="M16.41 5.41L15 4l-8 8 8 8 1.41-1.41L9.83 12"></path>
      </symbol>
      <symbol id="chevron-right" viewBox="0 0 24 24">
        <path d="M7.59 18.59L9 20l8-8-8-8-1.41 1.41L14.17 12"></path>
      </symbol>
      <symbol id="expand-less" viewBox="0 0 24 24">
        <path d="M18.59 16.41L20 15l-8-8-8 8 1.41 1.41L12 9.83"></path>
      </symbol>
      <symbol id="expand-more" viewBox="0 0 24 24">
        <path d="M5.41 7.59L4 9l8 8 8-8-1.41-1.41L12 14.17"></path>
      </symbol>
      <symbol id="arrow-back" viewBox="0 0 24 24">
        <path d="M20 11H7.83l5.59-5.59L12 4l-8 8 8 8 1.41-1.41L7.83 13H20v-2z"></path>
      </symbol>
      <symbol id="arrow-forward" viewBox="0 0 24 24">
        <path d="M12 4l-1.41 1.41L16.17 11H4v2h12.17l-5.58 5.59L12 20l8-8-8-8z"></path>
      </symbol>
      <symbol id="arrow-upward" viewBox="0 0 24 24">
        <path d="M4 12l1.41 1.41L11 7.83V20h2V7.83l5.58 5.59L20 12l-8-8-8 8z"></path>
      </symbol>
      <symbol id="arrow-downward" viewBox="0 0 24 24">
        <path d="M20 12l-1.41-1.41L13 16.17V4h-2v12.17l-5.58-5.59L4 12l8 8 8-8z"></path>
      </symbol>
      <symbol id="arrow-left" viewBox="0 0 24 24">
        <path d="M14 7l-5 5 5 5V7z"></path>
      </symbol>
      <symbol id="arrow-right" viewBox="0 0 24 24">
        <path d="M10 17l5-5-5-5v10z"></path>
      </symbol>
      <symbol id="arrow-drop-up" viewBox="0 0 24 24">
        <path d="M7 14l5-5 5 5H7z"></path>
      </symbol>
      <symbol id="arrow-drop-down" viewBox="0 0 24 24">
        <path d="M7 10l5 5 5-5H7z"></path>
      </symbol>
      <symbol id="dot-grid" viewBox="-4 -4 24 24">
        <path d="M2 4c1.1 0 2-.9 2-2s-.9-2-2-2-2 .9-2 2 .9 2 2 2Zm6 12c1.1 0 2-.9 2-2s-.9-2-2-2-2 .9-2 2 .9 2 2 2Zm-4-2c0 1.1-.9 2-2 2s-2-.9-2-2 .9-2 2-2 2 .9 2 2Zm-2-4c1.1 0 2-.9 2-2s-.9-2-2-2-2 .9-2 2 .9 2 2 2Zm8-2c0 1.1-.9 2-2 2s-2-.9-2-2 .9-2 2-2 2 .9 2 2Zm2-6c0 1.1.9 2 2 2s2-.9 2-2-.9-2-2-2-2 .9-2 2Zm-2 0c0 1.1-.9 2-2 2s-2-.9-2-2 .9-2 2-2 2 .9 2 2Zm4 8c1.1 0 2-.9 2-2s-.9-2-2-2-2 .9-2 2 .9 2 2 2Zm2 4c0 1.1-.9 2-2 2s-2-.9-2-2 .9-2 2-2 2 .9 2 2Z"></path>
      </symbol>

      <symbol id="help-icon" viewBox="0 0 24 24">
        <path d="M12 2C6.48 2 2 6.48 2 12s4.48 10 10 10 10-4.48 10-10S17.52 2 12 2zm1 17h-2v-2h2v2zm2.07-7.75l-.9.92C13.45 12.9 13 13.5 13 15h-2v-.5c0-1.1.45-2.1 1.17-2.83l1.24-1.26c.37-.36.59-.86.59-1.41 0-1.1-.9-2-2-2s-2 .9-2 2H8c0-2.21 1.79-4 4-4s4 1.79 4 4c0 .88-.36 1.68-.93 2.25z"></path>
      </symbol>
      <symbol id="menu" viewBox="0 0 24 24">
        <path d="M3 18h18v-2H3v2zm0-5h18v-2H3v2zm0-7v2h18V6H3z"></path>
      </symbol>
      <symbol id="more-vert" viewBox="0 0 24 24">
        <path d="M12 8c1.1 0 2-.9 2-2s-.9-2-2-2-2 .9-2 2 .9 2 2 2zm0 2c-1.1 0-2 .9-2 2s.9 2 2 2 2-.9 2-2-.9-2-2-2zm0 6c-1.1 0-2 .9-2 2s.9 2 2 2 2-.9 2-2-.9-2-2-2z"></path>
      </symbol>
      <symbol id="drive-pdf" viewBox="0 0 24 24">
        <path d="M7 11.5h1v-1H7v1zM19 3H5c-1.1 0-2 .9-2 2v14c0 1.1.9 2 2 2h14c1.1 0 2-.9 2-2V5c0-1.1-.9-2-2-2zm-9.5 8.5c0 .83-.67 1.5-1.5 1.5H7v2H5.5V9H8c.83 0 1.5.67 1.5 1.5v1zm10-1H17v1h1.5V13H17v2h-1.5V9h4v1.5zm-5 3c0 .83-.67 1.5-1.5 1.5h-2.5V9H13c.83 0 1.5.67 1.5 1.5v3zm-2.5 0h1v-3h-1v3z"></path>
      </symbol>
      <symbol id="file-download" viewBox="0 0 24 24">
        <path d="M4 15h2v3h12v-3h2v3c0 1.1-.9 2-2 2H6c-1.1 0-2-.9-2-2m11.59-8.41L13 12.17V4h-2v8.17L8.41 9.59 7 11l5 5 5-5-1.41-1.41z"></path>
      </symbol>
      <symbol id="open-in-new" viewBox="0 0 24 24">
        <path d="M19 19H5V5h7V3H5a2 2 0 0 0-2 2v14a2 2 0 0 0 2 2h14c1.1 0 2-.9 2-2v-7h-2v7zM14 3v2h3.59l-9.83 9.83 1.41 1.41L19 6.41V10h2V3h-7z"></path>
      </symbol>
      <symbol id="phone" viewBox="0 0 24 24">
        <path d="M16.01 14.46l-2.62 2.62a16.141 16.141 0 0 1-6.5-6.5l2.62-2.62a.98.98 0 0 0 .27-.9L9.13 3.8c-.09-.46-.5-.8-.98-.8H4c-.56 0-1.03.47-1 1.03a17.92 17.92 0 0 0 2.43 8.01 18.08 18.08 0 0 0 6.5 6.5 17.92 17.92 0 0 0 8.01 2.43c.56.03 1.03-.44 1.03-1v-4.15c0-.48-.34-.89-.8-.98l-3.26-.65a.99.99 0 0 0-.9.27z"></path>
      </symbol>
      <symbol id="email" viewBox="0 0 24 24">
        <path d="M20 4H4c-1.1 0-2 .9-2 2v12c0 1.1.9 2 2 2h16c1.1 0 2-.9 2-2V6c0-1.1-.9-2-2-2zm-.8 2L12 10.8 4.8 6h14.4zM4 18V7.87l8 5.33 8-5.33V18H4z"></path>
      </symbol>
      <symbol id="image" viewBox="0 0 24 24">
        <path d="M19.5 3h-14c-1.1 0-2 .9-2 2v14c0 1.1.9 2 2 2h14c1.1 0 2-.9 2-2V5c0-1.1-.9-2-2-2Zm0 16h-14V5h14v14Zm-8-3.28 3-3.72 4 5h-12l3-4 2 2.72Z"></path>
      </symbol>
      <symbol id="instagram" viewBox="0 0 24 24">
        <path d="M12,0 C15.3,0 15.7,0 17,0 C18.3,0.1 19.1,0.3 19.9,0.6 C20.7,0.9 21.3,1.3 22,2 C22.7,2.7 23.1,3.4 23.3,4.2 C23.6,5 23.8,5.8 23.9,7.1 C24,8.3 24,8.7 24,12 C24,15.3 24,15.7 23.9,16.9 C23.8,18.2 23.6,19 23.3,19.8 C23,20.6 22.6,21.2 21.9,21.9 C21.3,22.6 20.6,23 19.8,23.3 C19,23.6 18.2,23.8 16.9,23.9 C15.7,24 15.3,24 12,24 C8.7,24 8.3,24 7,24 C5.7,23.9 4.9,23.7 4.1,23.4 C3.3,23.1 2.7,22.7 2,22 C1.3,21.3 0.9,20.6 0.7,19.8 C0.4,19 0.2,18.2 0.1,16.9 C0,15.7 0,15.3 0,12 C0,8.7 0,8.3 0.1,7.1 C0.1,5.8 0.3,4.9 0.6,4.1 C0.9,3.4 1.3,2.7 2,2 C2.7,1.3 3.4,0.9 4.1,0.6 C4.9,0.3 5.8,0.1 7.1,0.1 C8.3,0 8.7,0 12,0 Z M12,2.2 C8.8,2.2 8.4,2.2 7.2,2.2 C6,2.3 5.3,2.5 4.9,2.6 C4.4,2.9 4,3.1 3.5,3.5 C3.1,3.9 2.8,4.3 2.6,4.9 C2.5,5.3 2.3,6 2.3,7.2 C2.2,8.4 2.2,8.8 2.2,12 C2.2,15.2 2.2,15.5 2.3,16.8 C2.3,17.9 2.5,18.6 2.7,19 C2.9,19.6 3.2,20 3.6,20.4 C4,20.8 4.4,21.1 5,21.3 C5.4,21.5 6,21.6 7.2,21.7 C8.4,21.8 8.8,21.8 12,21.8 C15.2,21.8 15.5,21.8 16.8,21.7 C17.9,21.7 18.6,21.5 19,21.3 C19.6,21.1 20,20.8 20.4,20.4 C20.8,20 21.1,19.6 21.3,19 C21.5,18.6 21.6,18 21.7,16.8 C21.8,15.6 21.8,15.2 21.8,12 C21.8,8.8 21.8,8.5 21.7,7.2 C21.7,6.1 21.5,5.4 21.3,5 C21.1,4.4 20.8,4 20.4,3.6 C20,3.2 19.6,2.9 19,2.7 C18.6,2.5 18,2.4 16.8,2.3 C15.6,2.2 15.2,2.2 12,2.2 Z M12,5.8 C15.4,5.8 18.2,8.6 18.2,12 C18.2,15.4 15.4,18.2 12,18.2 C8.6,18.2 5.8,15.4 5.8,12 C5.8,8.6 8.6,5.8 12,5.8 Z M12,16 C14.2,16 16,14.2 16,12 C16,9.8 14.2,8 12,8 C9.8,8 8,9.8 8,12 C8,14.2 9.8,16 12,16 Z M18.4,7 C17.6268014,7 17,6.37319865 17,5.6 C17,4.82680135 17.6268014,4.2 18.4,4.2 C19.1731986,4.2 19.8,4.82680135 19.8,5.6 C19.8,6.37319865 19.1731986,7 18.4,7 Z"></path>
      </symbol>
      <symbol id="link" viewBox="0 0 24 24">
        <path d="M17 7h-4v2h4c1.65 0 3 1.35 3 3s-1.35 3-3 3h-4v2h4c2.76 0 5-2.24 5-5s-2.24-5-5-5zm-6 8H7c-1.65 0-3-1.35-3-3s1.35-3 3-3h4V7H7c-2.76 0-5 2.24-5 5s2.24 5 5 5h4v-2z"></path>
        <path d="M8 11h8v2H8z"></path>
      </symbol>
      <symbol id="post-blogger" viewBox="0 0 24 24">
        <path d="M20 2H4c-1.1 0-1.99.9-1.99 2L2 20c0 1.1.9 2 2 2h16c1.1 0 2-.9 2-2V4c0-1.1-.9-2-2-2zm-4 7v1c0 .55.45 1 1 1s1 .45 1 1v3c0 1.66-1.34 3-3 3H9c-1.66 0-3-1.34-3-3V8c0-1.66 1.34-3 3-3h4c1.66 0 3 1.34 3 3v1zm-6.05 1h2.6c.55 0 1-.45 1-1s-.45-1-1-1h-2.6c-.55 0-1 .45-1 1s.45 1 1 1zM14 13H9.95c-.55 0-1 .45-1 1s.45 1 1 1H14c.55 0 1-.45 1-1s-.45-1-1-1z"></path>
      </symbol>
      <symbol id="post-facebook" viewBox="0 0 24 24">
        <path d="M20 2H4c-1.1 0-1.99.9-1.99 2L2 20c0 1.1.9 2 2 2h16c1.1 0 2-.9 2-2V4c0-1.1-.9-2-2-2zm-1 2v3h-2c-.55 0-1 .45-1 1v2h3v3h-3v7h-3v-7h-2v-3h2V7.5C13 5.57 14.57 4 16.5 4H19z"></path>
      </symbol>
      <symbol id="post-linkedin" viewBox="0 0 24 24">
        <path d="M20 2H4c-1.1 0-1.99.9-1.99 2L2 20c0 1.1.9 2 2 2h16c1.1 0 2-.9 2-2V4c0-1.1-.9-2-2-2zM8 19H5v-9h3v9zM6.5 8.31c-1 0-1.81-.81-1.81-1.81S5.5 4.69 6.5 4.69s1.81.81 1.81 1.81S7.5 8.31 6.5 8.31zM19 19h-3v-5.3c0-.83-.67-1.5-1.5-1.5s-1.5.67-1.5 1.5V19h-3v-9h3v1.2c.52-.84 1.59-1.4 2.5-1.4 1.93 0 3.5 1.57 3.5 3.5V19z"></path>
      </symbol>
      <symbol id="share" viewBox="0 0 24 24">
        <path d="M18 16c-.79 0-1.5.31-2.03.81L8.91 12.7c.05-.23.09-.46.09-.7s-.04-.47-.09-.7l7.05-4.11c.53.5 1.25.81 2.04.81 1.66 0 3-1.34 3-3s-1.34-3-3-3-3 1.34-3 3c0 .24.04.48.09.7L8.04 9.81C7.5 9.31 6.79 9 6 9c-1.66 0-3 1.34-3 3s1.34 3 3 3c.79 0 1.5-.31 2.04-.81l7.05 4.12c-.05.22-.09.45-.09.69 0 1.66 1.34 3 3 3s3-1.34 3-3-1.34-3-3-3zm0-12c.55 0 1 .45 1 1s-.45 1-1 1-1-.45-1-1 .45-1 1-1zM6 13c-.55 0-1-.45-1-1s.45-1 1-1 1 .45 1 1-.45 1-1 1zm12 7c-.55 0-1-.45-1-1s.45-1 1-1 1 .45 1 1-.45 1-1 1z"></path>
      </symbol>
      <symbol id="twitter" viewBox="0 0 24 24">
        <path d="M7.5,21.8c9.1,0,14-7.5,14-14c0-0.2,0-0.4,0-0.6c1-0.7,1.8-1.6,2.5-2.5c-0.9,0.4-1.8,0.7-2.8,0.8c1-0.6,1.8-1.6,2.2-2.7 c-1,0.6-2,1-3.1,1.2c-0.9-1-2.2-1.6-3.6-1.6c-2.7,0-4.9,2.2-4.9,4.9c0,0.4,0,0.8,0.1,1.1C7.7,8.1,4.1,6.1,1.7,3.1 C1.2,3.9,1,4.7,1,5.6c0,1.7,0.9,3.2,2.2,4.1C2.4,9.7,1.6,9.5,1,9.1c0,0,0,0,0,0.1c0,2.4,1.7,4.4,4,4.8c-0.4,0.1-0.8,0.2-1.3,0.2 c-0.3,0-0.6,0-0.9-0.1c0.6,2,2.4,3.4,4.6,3.4c-1.7,1.3-3.8,2.1-6.1,2.1c-0.4,0-0.8,0-1.2-0.1C2.2,20.9,4.8,21.8,7.5,21.8"></path>
      </symbol>
      <symbol id="video-youtube" viewBox="0 0 24 24">
        <path d="M23.74 7.1s-.23-1.65-.95-2.37c-.91-.96-1.93-.96-2.4-1.02C17.04 3.47 12 3.5 12 3.5s-5.02-.03-8.37.21c-.46.06-1.48.06-2.39 1.02C.52 5.45.28 7.1.28 7.1S.04 9.05 0 10.98V13c.04 1.94.28 3.87.28 3.87s.24 1.65.96 2.38c.91.95 2.1.92 2.64 1.02 1.88.18 7.91.22 8.12.22 0 0 5.05.01 8.4-.23.46-.06 1.48-.06 2.39-1.02.72-.72.96-2.37.96-2.37s.24-1.94.25-3.87v-2.02c-.02-1.93-.26-3.88-.26-3.88zM9.57 15.5V8.49L16 12.13 9.57 15.5z"></path>
      </symbol>
      <symbol id="video-youtube-white" viewBox="0 0 24 24">
        <path fill="#fff" d="M23.74 7.1s-.23-1.65-.95-2.37c-.91-.96-1.93-.96-2.4-1.02C17.04 3.47 12 3.5 12 3.5s-5.02-.03-8.37.21c-.46.06-1.48.06-2.39 1.02C.52 5.45.28 7.1.28 7.1S.04 9.05 0 10.98V13c.04 1.94.28 3.87.28 3.87s.24 1.65.96 2.38c.91.95 2.1.92 2.64 1.02 1.88.18 7.91.22 8.12.22 0 0 5.05.01 8.4-.23.46-.06 1.48-.06 2.39-1.02.72-.72.96-2.37.96-2.37s.24-1.94.25-3.87v-2.02c-.02-1.93-.26-3.88-.26-3.88zM9.57 15.5V8.49L16 12.13 9.57 15.5z"></path>
      </symbol>
      <symbol id="video-youtube-black" viewBox="0 0 24 24">
        <path fill="#000" d="M23.74 7.1s-.23-1.65-.95-2.37c-.91-.96-1.93-.96-2.4-1.02C17.04 3.47 12 3.5 12 3.5s-5.02-.03-8.37.21c-.46.06-1.48.06-2.39 1.02C.52 5.45.28 7.1.28 7.1S.04 9.05 0 10.98V13c.04 1.94.28 3.87.28 3.87s.24 1.65.96 2.38c.91.95 2.1.92 2.64 1.02 1.88.18 7.91.22 8.12.22 0 0 5.05.01 8.4-.23.46-.06 1.48-.06 2.39-1.02.72-.72.96-2.37.96-2.37s.24-1.94.25-3.87v-2.02c-.02-1.93-.26-3.88-.26-3.88zM9.57 15.5V8.49L16 12.13 9.57 15.5z"></path>
        <polygon fill="#fff" points="9.6,15.5 9.6,8.5 16,12.1 "></polygon>
      </symbol>
      <symbol id="video-youtube-red" viewBox="0 0 24 24">
        <path fill="#f00" d="M23.74 7.1s-.23-1.65-.95-2.37c-.91-.96-1.93-.96-2.4-1.02C17.04 3.47 12 3.5 12 3.5s-5.02-.03-8.37.21c-.46.06-1.48.06-2.39 1.02C.52 5.45.28 7.1.28 7.1S.04 9.05 0 10.98V13c.04 1.94.28 3.87.28 3.87s.24 1.65.96 2.38c.91.95 2.1.92 2.64 1.02 1.88.18 7.91.22 8.12.22 0 0 5.05.01 8.4-.23.46-.06 1.48-.06 2.39-1.02.72-.72.96-2.37.96-2.37s.24-1.94.25-3.87v-2.02c-.02-1.93-.26-3.88-.26-3.88zM9.57 15.5V8.49L16 12.13 9.57 15.5z"></path>
        <polygon fill="#fff" points="9.6,15.5 9.6,8.5 16,12.1 "></polygon>
      </symbol>
      <symbol id="close" viewBox="0 0 24 24">
        <path d="M19 6.41L17.59 5 12 10.59 6.41 5 5 6.41 10.59 12 5 17.59 6.41 19 12 13.41 17.59 19 19 17.59 13.41 12 19 6.41z"></path>
      </symbol>
      <symbol id="collapse-all" viewBox="0 0 18 18">
        <path d="M5.5575 1.49982L4.5 2.55732L9 7.05732L13.5 2.55732L12.4425 1.49982L9 4.93482L5.5575 1.49982ZM9 13.0648L12.4425 16.4998L13.5 15.4423L9 10.9423L4.5 15.4423L5.5575 16.4998L9 13.0648Z"></path>
      </symbol>
      <symbol id="expand-all" viewBox="0 0 24 24">
        <path d="M16.59 9.41L18 8l-6-6-6 6 1.41 1.41L12 4.83l4.59 4.58zM12 19.17l-4.59-4.58L6 16l6 6 6-6-1.41-1.41L12 19.17z"></path>
      </symbol>
      <symbol id="play-circle-filled" viewBox="0 0 24 24">
        <path d="M12 2C6.48 2 2 6.48 2 12s4.48 10 10 10 10-4.48 10-10S17.52 2 12 2zm-2 14.5v-9l6 4.5-6 4.5z"></path>
      </symbol>
      <symbol id="search" viewBox="0 0 24 24">
        <path d="M20.49 19l-5.73-5.73C15.53 12.2 16 10.91 16 9.5A6.5 6.5 0 1 0 9.5 16c1.41 0 2.7-.47 3.77-1.24L19 20.49 20.49 19zM5 9.5C5 7.01 7.01 5 9.5 5S14 7.01 14 9.5 11.99 14 9.5 14 5 11.99 5 9.5z"></path>
      </symbol>
      <symbol id="google-color-logo" viewBox="0 0 74 24">
        <path fill="#4285F4" d="M9.24 8.19v2.46h5.88c-.18 1.38-.64 2.39-1.34 3.1-.86.86-2.2 1.8-4.54 1.8-3.62 0-6.45-2.92-6.45-6.54s2.83-6.54 6.45-6.54c1.95 0 3.38.77 4.43 1.76L15.4 2.5C13.94 1.08 11.98 0 9.24 0 4.28 0 .11 4.04.11 9s4.17 9 9.13 9c2.68 0 4.7-.88 6.28-2.52 1.62-1.62 2.13-3.91 2.13-5.75 0-.57-.04-1.1-.13-1.54H9.24z"></path>
        <path fill="#EA4335" d="M25 6.19c-3.21 0-5.83 2.44-5.83 5.81 0 3.34 2.62 5.81 5.83 5.81s5.83-2.46 5.83-5.81c0-3.37-2.62-5.81-5.83-5.81zm0 9.33c-1.76 0-3.28-1.45-3.28-3.52 0-2.09 1.52-3.52 3.28-3.52s3.28 1.43 3.28 3.52c0 2.07-1.52 3.52-3.28 3.52z"></path>
        <path fill="#4285F4" d="M53.58 7.49h-.09c-.57-.68-1.67-1.3-3.06-1.3C47.53 6.19 45 8.72 45 12c0 3.26 2.53 5.81 5.43 5.81 1.39 0 2.49-.62 3.06-1.32h.09v.81c0 2.22-1.19 3.41-3.1 3.41-1.56 0-2.53-1.12-2.93-2.07l-2.22.92c.64 1.54 2.33 3.43 5.15 3.43 2.99 0 5.52-1.76 5.52-6.05V6.49h-2.42v1zm-2.93 8.03c-1.76 0-3.1-1.5-3.1-3.52 0-2.05 1.34-3.52 3.1-3.52 1.74 0 3.1 1.5 3.1 3.54.01 2.03-1.36 3.5-3.1 3.5z"></path>
        <path fill="#FBBC05" d="M38 6.19c-3.21 0-5.83 2.44-5.83 5.81 0 3.34 2.62 5.81 5.83 5.81s5.83-2.46 5.83-5.81c0-3.37-2.62-5.81-5.83-5.81zm0 9.33c-1.76 0-3.28-1.45-3.28-3.52 0-2.09 1.52-3.52 3.28-3.52s3.28 1.43 3.28 3.52c0 2.07-1.52 3.52-3.28 3.52z"></path>
        <path fill="#34A853" d="M58 .24h2.51v17.57H58z"></path>
        <path fill="#EA4335" d="M68.26 15.52c-1.3 0-2.22-.59-2.82-1.76l7.77-3.21-.26-.66c-.48-1.3-1.96-3.7-4.97-3.7-2.99 0-5.48 2.35-5.48 5.81 0 3.26 2.46 5.81 5.76 5.81 2.66 0 4.2-1.63 4.84-2.57l-1.98-1.32c-.66.96-1.56 1.6-2.86 1.6zm-.18-7.15c1.03 0 1.91.53 2.2 1.28l-5.25 2.17c0-2.44 1.73-3.45 3.05-3.45z"></path>
      </symbol>
      <symbol id="google-solid-logo" viewBox="0 0 74 24">
        <path d="M9.24 8.19v2.46h5.88c-.18 1.38-.64 2.39-1.34 3.1-.86.86-2.2 1.8-4.54 1.8-3.62 0-6.45-2.92-6.45-6.54s2.83-6.54 6.45-6.54c1.95 0 3.38.77 4.43 1.76L15.4 2.5C13.94 1.08 11.98 0 9.24 0 4.28 0 .11 4.04.11 9s4.17 9 9.13 9c2.68 0 4.7-.88 6.28-2.52 1.62-1.62 2.13-3.91 2.13-5.75 0-.57-.04-1.1-.13-1.54H9.24zm15.76-2c-3.21 0-5.83 2.44-5.83 5.81 0 3.34 2.62 5.81 5.83 5.81s5.83-2.46 5.83-5.81c0-3.37-2.62-5.81-5.83-5.81zm0 9.33c-1.76 0-3.28-1.45-3.28-3.52 0-2.09 1.52-3.52 3.28-3.52s3.28 1.43 3.28 3.52c0 2.07-1.52 3.52-3.28 3.52zm28.58-8.03h-.09c-.57-.68-1.67-1.3-3.06-1.3C47.53 6.19 45 8.72 45 12c0 3.26 2.53 5.81 5.43 5.81 1.39 0 2.49-.62 3.06-1.32h.09v.81c0 2.22-1.19 3.41-3.1 3.41-1.56 0-2.53-1.12-2.93-2.07l-2.22.92c.64 1.54 2.33 3.43 5.15 3.43 2.99 0 5.52-1.76 5.52-6.05V6.49h-2.42v1zm-2.93 8.03c-1.76 0-3.1-1.5-3.1-3.52 0-2.05 1.34-3.52 3.1-3.52 1.74 0 3.1 1.5 3.1 3.54.01 2.03-1.36 3.5-3.1 3.5zM38 6.19c-3.21 0-5.83 2.44-5.83 5.81 0 3.34 2.62 5.81 5.83 5.81s5.83-2.46 5.83-5.81c0-3.37-2.62-5.81-5.83-5.81zm0 9.33c-1.76 0-3.28-1.45-3.28-3.52 0-2.09 1.52-3.52 3.28-3.52s3.28 1.43 3.28 3.52c0 2.07-1.52 3.52-3.28 3.52zM58 .24h2.51v17.57H58zm10.26 15.28c-1.3 0-2.22-.59-2.82-1.76l7.77-3.21-.26-.66c-.48-1.3-1.96-3.7-4.97-3.7-2.99 0-5.48 2.35-5.48 5.81 0 3.26 2.46 5.81 5.76 5.81 2.66 0 4.2-1.63 4.84-2.57l-1.98-1.32c-.66.96-1.56 1.6-2.86 1.6zm-.18-7.15c1.03 0 1.91.53 2.2 1.28l-5.25 2.17c0-2.44 1.73-3.45 3.05-3.45z"></path>
      </symbol>
      <symbol id="error" viewBox="0 0 24 24">
        <path d="M12 2C6.48 2 2 6.48 2 12s4.48 10 10 10 10-4.48 10-10S17.52 2 12 2zm1 15h-2v-2h2v2zm0-4h-2V7h2v6z"></path>
      </symbol>
      <symbol id="pause-button" viewBox="0 0 24 24">
        <path fill-rule="evenodd" clip-rule="evenodd" d="M10 19H6V5H10V19ZM14 19V5H18V19H14Z"></path>
      </symbol>
      <symbol id="play-button" viewBox="0 0 24 24">
        <path d="M8 5V19L19 12L8 5Z"></path>
      </symbol>
      <symbol id="access-time" viewBox="0 0 10 10">
        <path fill-rule="evenodd" clip-rule="evenodd" d="M4.995 0C2.235 0 0 2.24 0 5C0 7.76 2.235 10 4.995 10C7.76 10 10 7.76 10 5C10 2.24 7.76 0 4.995 0ZM5.00002 8.99996C2.79002 8.99996 1.00002 7.20996 1.00002 4.99996C1.00002 2.78996 2.79002 0.999959 5.00002 0.999959C7.21002 0.999959 9.00002 2.78996 9.00002 4.99996C9.00002 7.20996 7.21002 8.99996 5.00002 8.99996ZM4.5 2.49996H5.25V5.12496L7.5 6.45996L7.125 7.07496L4.5 5.49996V2.49996Z"></path>
      </symbol>
      <symbol id="shopping" viewBox="0 0 24 24">
        <path d="M18.997 2h-5.87c-.8 0-1.56.32-2.12.88l-8.13 8.13a3 3 0 0 0 0 4.24l5.87 5.87c.59.59 1.36.88 2.12.88s1.54-.29 2.12-.88l8.13-8.12c.56-.56.88-1.33.88-2.12V5c0-1.66-1.34-3-3-3Zm1 8.88c0 .27-.1.52-.29.71l-8.13 8.12a.96.96 0 0 1-.71.29c-.16 0-.45-.04-.71-.29l-5.87-5.87a1.017 1.017 0 0 1 0-1.42l8.13-8.13c.19-.19.45-.29.71-.29h5.87c.55 0 1 .45 1 1v5.88Z"></path>
        <path d="M16.497 9a1.5 1.5 0 1 0 0-3 1.5 1.5 0 0 0 0 3Z"></path>
      </symbol>
      <symbol id="stat-icon" viewBox="0 0 18 21">
        <path fill-rule="evenodd" d="M8.9982 4.14771L15.4403 10.5898L17.4193 8.59683L8.9982 0.175781L0.577148 8.59683L2.5561 10.5758L8.9982 4.14771ZM0.577148 18.5196L2.5561 20.4986L8.9982 14.0705L15.4403 20.5126L17.4193 18.5196L8.9982 10.0986L0.577148 18.5196Z"></path>
      </symbol>
      <symbol id="arrow-cta-icon" viewBox="0 0 17 16">
        <path fill-rule="evenodd" clip-rule="evenodd" d="M8.5 0L7.09 1.41L12.67 7H0.5V9H12.67L7.09 14.59L8.5 16L16.5 8L8.5 0Z"></path>
      </symbol>
      <symbol id="slanted-arrow-cta" viewBox="0 0 12 12">
        <path fill-rule="evenodd" clip-rule="evenodd" d="M0.758266 0.757359L0.758266 2.25289L6.68205 2.25819L0.227936 8.71231L1.2886 9.77297L7.74271 3.31885L7.74802 9.24264H9.24355V0.757359H0.758266Z"></path>
      </symbol>
      <symbol id="calendar" viewBox="0 0 14 16">
        <path d="M11.5 2H12.25C13.075 2 13.75 2.675 13.75 3.5V14C13.75 14.825 13.075 15.5 12.25 15.5H1.75C0.9175 15.5 0.25 14.825 0.25 14L0.2575 3.5C0.2575 2.675 0.9175 2 1.75 2H2.5V0.5H4V2H10V0.5H11.5V2ZM1.75 14H12.25V5.75H1.75V14Z"></path>
      </symbol>
      <symbol id="checkmark" viewBox="0 0 24 24">
        <path d="m9.55 18-5.7-5.7 1.425-1.425L9.55 15.15l9.175-9.175L20.15 7.4Z"></path>
      </symbol>
      <symbol id="checkmark-filled" viewBox="0 0 20 20">
        <path d="M10 0C4.48 0 0 4.48 0 10C0 15.52 4.48 20 10 20C15.52 20 20 15.52 20 10C20 4.48 15.52 0 10 0ZM8 15L4 11L5.4 9.6L8 12.2L14.6 5.6L16 7L8 15Z"></path>
      </symbol>
      <symbol id="chat" viewBox="0 0 24 24">
        <path d="M16 13c.55 0 1-.45 1-1V3c0-.55-.45-1-1-1H3c-.55 0-1 .45-1 1v14l4-4h10zm-1-9v7H4V4h11zm6 2h-2v9H6v2c0 .55.45 1 1 1h11l4 4V7c0-.55-.45-1-1-1z"></path>
      </symbol>
      <symbol id="schedule" viewBox="0 0 14 16">
        <path d="M11.5 2H12.25C13.075 2 13.75 2.675 13.75 3.5V14C13.75 14.825 13.075 15.5 12.25 15.5H1.75C0.9175 15.5 0.25 14.825 0.25 14L0.2575 3.5C0.2575 2.675 0.9175 2 1.75 2H2.5V0.5H4V2H10V0.5H11.5V2ZM1.75 14H12.25V5.75H1.75V14Z"></path>
      </symbol>
      <symbol id="text" viewBox="0 0 24 24">
        <path fill-rule="evenodd" clip-rule="evenodd" d="M20 2H4c-1.1 0-2 .9-2 2v18l4.75-4h14c.35 0 1.25-.9 1.25-2V4c0-1.1-.9-2-2-2Zm0 14H4V4h16v12ZM7 11h2V9H7v2Zm10 0h-2V9h2v2Zm-6 0h2V9h-2v2Z"></path>
      </symbol>
      <symbol id="support-blue" viewBox="0 0 33 32">
        <path d="M16.4974 2.66699C9.1374 2.66699 3.16406 8.64033 3.16406 16.0003C3.16406 23.3603 9.1374 29.3337 16.4974 29.3337C23.8574 29.3337 29.8307 23.3603 29.8307 16.0003C29.8307 8.64033 23.8574 2.66699 16.4974 2.66699ZM26.4441 12.1603L22.7374 13.6937C22.0574 11.8803 20.6307 10.4403 18.8041 9.77366L20.3374 6.06699C23.1374 7.13366 25.3641 9.36033 26.4441 12.1603ZM16.4974 20.0003C14.2841 20.0003 12.4974 18.2137 12.4974 16.0003C12.4974 13.787 14.2841 12.0003 16.4974 12.0003C18.7107 12.0003 20.4974 13.787 20.4974 16.0003C20.4974 18.2137 18.7107 20.0003 16.4974 20.0003ZM12.6707 6.05366L14.2307 9.76033C12.3907 10.427 10.9374 11.8803 10.2574 13.7203L6.55073 12.1737C7.63073 9.36033 9.8574 7.13366 12.6707 6.05366ZM6.55073 19.827L10.2574 18.2937C10.9374 20.1337 12.3774 21.5737 14.2174 22.2403L12.6574 25.947C9.8574 24.867 7.63073 22.6403 6.55073 19.827ZM20.3374 25.947L18.8041 22.2403C20.6307 21.5603 22.0707 20.1203 22.7374 18.2803L26.4441 19.8403C25.3641 22.6403 23.1374 24.867 20.3374 25.947Z" fill="#1A73E8"></path>
      </symbol>
      <symbol id="school-green" viewBox="0 0 32 32">
        <path fill-rule="evenodd" clip-rule="evenodd" d="M16.0026 4L1.33594 12L6.66927 14.9067V22.9067L16.0026 28L25.3359 22.9067V14.9067L28.0026 13.4533V22.6667H30.6693V12L16.0026 4ZM25.0959 12L16.0026 16.96L6.90927 12L16.0026 7.04L25.0959 12ZM16.0026 24.96L22.6693 21.32V16.36L16.0026 20L9.33594 16.36V21.32L16.0026 24.96Z" fill="#1E8E3E"></path>
      </symbol>

      <symbol id="circle" viewBox="0 0 471.612 471.612">
        <g id="SVGRepo_bgCarrier" stroke-width="0"></g>
        <g id="SVGRepo_tracerCarrier" stroke-linecap="round" stroke-linejoin="round"></g>
        <g id="SVGRepo_iconCarrier">
          <g>
            <path d="M68.987,402.624c91.98,91.983,241.652,91.983,333.636,0c91.983-91.977,91.983-241.658,0-333.639s-241.655-91.98-333.636,0 S-22.993,310.642,68.987,402.624z M87.29,87.276c81.899-81.896,215.152-81.896,297.052,0c81.882,81.894,81.882,215.154,0,297.055 c-81.899,81.887-215.164,81.887-297.052,0C5.394,302.431,5.394,169.17,87.29,87.276z"></path>
          </g>
        </g>
      </symbol>
      <symbol id="circle-filled" viewBox="0 0 24 24">
        <circle cx="12" cy="12" r="12"></circle>
      </symbol>
      <symbol id="line-graph" viewBox="0 0 24 24">
        <path d="m4 16.22 5.5-5.5 4 4 5.1-5 1.4 1.43-6.51 6.39-3.99-3.99-4.09 4.09L4 16.22Zm9.5-4.5.94-2.06 2.06-.94-2.06-.94-.94-2.06-.94 2.06-2.06.94 2.06.94.94 2.06Z"></path>
      </symbol>
      <symbol id="filter" viewBox="0 0 24 24">
        <path d="M10 18v-2h4v2Zm-4-5v-2h12v2ZM3 8V6h18v2Z"></path>
      </symbol>
      <symbol id="article" viewBox="0 0 21 21">
        <path d="M12.75 2.957H4.417c-.917 0-1.659.75-1.659 1.667L2.75 16.29c0 .917.742 1.667 1.658 1.667h11.675c.917 0 1.667-.75 1.667-1.667V7.957l-5-5ZM4.417 16.29V4.624h7.5V8.79h4.166v7.5H4.417Zm5.833-7.5H6.083V7.124h4.167V8.79Zm4.167 2.917H6.083V10.04h8.334v1.667Zm0 2.917H6.083v-1.667h8.334v1.667Z"></path>
      </symbol>
      <symbol id="success-story" viewBox="0 0 21 21">
        <path d="m8.32 11.865 1.933-1.467 1.925 1.467-.734-2.375 1.934-1.534H11.01l-.758-2.341-.759 2.341H7.128L9.053 9.49l-.734 2.375Zm8.6-3.075a6.665 6.665 0 0 0-6.667-6.667A6.665 6.665 0 0 0 3.586 8.79c0 1.691.633 3.225 1.667 4.4v6.433l5-1.667 5 1.667V13.19a6.634 6.634 0 0 0 1.666-4.4Zm-6.667-5c2.758 0 5 2.241 5 5 0 2.758-2.242 5-5 5-2.759 0-5-2.242-5-5 0-2.759 2.241-5 5-5Zm0 12.5-3.334.85v-2.584a6.65 6.65 0 0 0 3.334.9 6.65 6.65 0 0 0 3.333-.9v2.584l-3.333-.85Z"></path>
      </symbol>
      <symbol id="library-books" viewBox="0 0 20 20">
        <path fill-rule="evenodd" clip-rule="evenodd" d="M6 0H18C19.1 0 20 0.9 20 2V14C20 15.1 19.1 16 18 16H6C4.9 16 4 15.1 4 14V2C4 0.9 4.9 0 6 0ZM0 4H2V18H16V20H2C0.9 20 0 19.1 0 18V4ZM6 14V2H18V14H6ZM16 7H8V9H16V7ZM8 10H12V12H8V10ZM16 4H8V6H16V4Z" fill="#1967D2"></path>
      </symbol>
    </svg>