<svg xmlns="http://www.w3.org/2000/svg" width="30" height="30" viewBox="0 0 30 30" fill="none"><path d="M3.015 21.2025C2.0475 19.35 1.5 17.235 1.5 15C1.5 12.8475 2.01 10.8075 2.91 8.99997L1.62 8.21997C0.585 10.2525 0 12.5625 0 15C0 17.4825 0.6 19.8225 1.6725 21.885L3.015 21.2025Z" fill="#F6AD01"></path><path d="M24.1125 24.9525C21.7125 27.1575 18.51 28.5 15 28.5C9.78754 28.5 5.26504 25.5375 3.00754 21.2025L1.66504 21.885C4.16254 26.7075 9.19504 30 15 30C18.9 30 22.4475 28.515 25.11 26.0775L24.1125 24.9525Z" fill="#249A41"></path><path d="M25.1174 26.0775C28.1174 23.34 29.9999 19.3875 29.9999 15C29.9999 10.605 28.1099 6.65247 25.0949 3.90747L24.0674 5.00247C26.7899 7.47747 28.4999 11.04 28.4999 15C28.4999 18.9375 26.8049 22.485 24.1124 24.9525L25.1174 26.0775Z" fill="#3174F1"></path><path d="M15.0001 1.5C18.4876 1.5 21.6676 2.8275 24.0676 5.0025L25.0951 3.9075C22.4326 1.4775 18.8926 0 15.0001 0C9.15762 0 4.09512 3.345 1.62012 8.22L2.91012 9C5.12262 4.56 9.71262 1.5 15.0001 1.5Z" fill="#E92D18"></path></svg>