<svg width="175" height="28" viewBox="0 0 175 28" fill="none" xmlns="http://www.w3.org/2000/svg">
<path d="M95.0571 20.8599V3.0231H101.136C104.1 3.0231 106.716 5.21475 106.716 8.329C106.716 11.4432 104.1 13.6349 101.136 13.6349H97.35V20.8599H95.0571ZM101.186 11.4432C102.012 11.4432 102.804 11.1151 103.388 10.5311C103.972 9.94707 104.301 9.15494 104.301 8.329C104.301 7.50305 103.972 6.71093 103.388 6.12689C102.804 5.54286 102.012 5.21475 101.186 5.21475H97.35V11.4432H101.186Z" fill="#202124"/>
<path d="M110.583 8.65404L110.484 10.3474H110.583C111.232 9.22629 112.777 8.25503 114.445 8.25503C117.559 8.25503 119.105 10.3727 119.105 13.3858V20.8599H116.812V13.7342C116.812 11.2038 115.543 10.3474 113.799 10.3474C111.806 10.3474 110.583 12.2393 110.583 14.1079V20.8599H108.292V3.0231H110.583V8.65404Z" fill="#202124"/>
<path d="M133.545 14.7561C133.545 18.4678 130.929 21.259 127.268 21.259C123.607 21.259 120.991 18.4678 120.991 14.7561C120.991 11.0443 123.607 8.25507 127.268 8.25507C130.929 8.25507 133.545 11.0443 133.545 14.7561ZM131.254 14.7561C131.258 11.9669 129.312 10.3494 127.268 10.3494C125.224 10.3494 123.278 11.9669 123.278 14.7561C123.278 17.5452 125.224 19.1666 127.264 19.1666C129.304 19.1666 131.258 17.5511 131.258 14.7561H131.254Z" fill="#202124"/>
<path d="M136.324 17.1482V10.7387H134.183V8.65211H136.324V4.91696H138.617V8.65211H141.604V10.7387H138.617V16.9671C138.617 18.3296 139.189 18.9603 140.259 18.9603C140.619 18.9778 140.977 18.9112 141.306 18.7656L142.103 20.7334C141.518 20.9708 140.89 21.0809 140.259 21.0565C137.686 21.0546 136.324 19.6396 136.324 17.1482Z" fill="#202124"/>
<path d="M155.353 14.7561C155.353 18.4678 152.737 21.259 149.075 21.259C145.414 21.259 142.798 18.4678 142.798 14.7561C142.798 11.0443 145.414 8.25507 149.075 8.25507C152.737 8.25507 155.353 11.0443 155.353 14.7561ZM153.062 14.7561C153.062 11.9669 151.115 10.3474 149.075 10.3474C147.036 10.3474 145.085 11.9669 145.085 14.7561C145.085 17.5452 147.032 19.1666 149.072 19.1666C151.111 19.1666 153.066 17.5511 153.066 14.7561H153.062Z" fill="#202124"/>
<path d="M156.372 17.771L158.415 16.9243C159.063 18.4678 160.259 19.2153 161.724 19.2153C163.145 19.2153 164.165 18.5184 164.165 17.4966C164.165 16.8737 163.791 16.2022 162.497 15.8772L160.031 15.2796C158.91 15.0052 156.767 14.0339 156.767 11.8909C156.767 9.67399 159.06 8.25507 161.6 8.25507C163.717 8.25507 165.561 9.22827 166.308 11.0949L164.315 11.9162C163.842 10.7698 162.721 10.2968 161.526 10.2968C160.229 10.2968 159.108 10.8808 159.108 11.8656C159.108 12.6442 159.756 13.0627 160.728 13.2865L163.145 13.8607C165.561 14.4329 166.508 15.9278 166.508 17.4226C166.508 19.589 164.562 21.259 161.699 21.259C158.754 21.259 157.086 19.515 156.372 17.771Z" fill="#202124"/>
<path d="M8 11.0439C8 5.41294 12.7337 0.827216 18.3646 0.827216C19.6613 0.806116 20.9491 1.0444 22.1525 1.52806C23.3558 2.01173 24.4503 2.73101 25.3716 3.64366L23.4038 5.61148C22.0543 4.30974 20.2453 3.59344 18.3704 3.61836C14.2596 3.61836 11.0461 6.92724 11.0461 11.0439C11.0461 15.1605 14.2596 18.4675 18.3704 18.4675C21.037 18.4675 22.5571 17.3969 23.5284 16.4237C24.3264 15.6277 24.8481 14.4773 25.0485 12.9202H18.3704V10.1213H27.7638C27.87 10.699 27.9202 11.2857 27.9137 11.8731C27.9137 13.9654 27.3414 16.5561 25.4962 18.4013C23.7036 20.2698 21.4088 21.2664 18.3704 21.2664C12.7259 21.2586 8 16.6748 8 11.0439Z" fill="#202124"/>
<path d="M35.5002 8.10229C31.8623 8.10229 28.8979 10.8681 28.8979 14.6792C28.8979 18.4902 31.8623 21.258 35.5002 21.258C39.138 21.258 42.1023 18.4669 42.1023 14.6792C42.1023 10.8915 39.138 8.10229 35.5002 8.10229ZM35.5002 18.6674C33.507 18.6674 31.7884 17.0227 31.7884 14.6792C31.7884 12.3357 33.507 10.693 35.5002 10.693C37.4933 10.693 39.2119 12.3124 39.2119 14.6792C39.2119 17.046 37.4933 18.6674 35.5002 18.6674Z" fill="#202124"/>
<path d="M49.9054 8.10229C46.2676 8.10229 43.3032 10.8681 43.3032 14.6792C43.3032 18.4902 46.2676 21.258 49.9054 21.258C53.5432 21.258 56.5076 18.4669 56.5076 14.6792C56.5076 10.8915 53.5432 8.10229 49.9054 8.10229ZM49.9054 18.6674C47.9123 18.6674 46.1936 17.0227 46.1936 14.6792C46.1936 12.3357 47.9123 10.693 49.9054 10.693C51.8985 10.693 53.6172 12.3124 53.6172 14.6792C53.6172 17.046 51.8985 18.6674 49.9054 18.6674Z" fill="#202124"/>
<path d="M67.5836 8.50219V9.57076H67.4843C66.8362 8.7922 65.5905 8.10123 64.0217 8.10123C60.7323 8.10123 57.7173 10.9916 57.7173 14.7034C57.7173 18.4152 60.7323 21.257 64.0217 21.257C65.5905 21.257 66.8362 20.5582 67.4843 19.7621H67.5836V20.7081C67.5836 23.2248 66.2386 24.5697 64.0704 24.5697C62.3011 24.5697 61.2052 23.2987 60.7615 22.2341L58.2448 23.2812C58.718 24.4371 59.5257 25.4252 60.5644 26.1188C61.6031 26.8124 62.8253 27.1799 64.0742 27.174C67.4629 27.174 70.328 25.1809 70.328 20.3207V8.50219H67.5836ZM64.2747 18.6682C62.2816 18.6682 60.6116 16.9982 60.6116 14.7054C60.6116 12.4125 62.2816 10.6938 64.2747 10.6938C66.2678 10.6938 67.7782 12.3892 67.7782 14.7054C67.7782 17.0216 66.2386 18.6682 64.2708 18.6682H64.2747Z" fill="#202124"/>
<path d="M75.2039 1.52579H72.3135V20.8594H75.2039V1.52579Z" fill="#202124"/>
<path d="M83.1264 18.668C81.6549 18.668 80.6097 17.9946 79.9362 16.6749L88.732 13.0371L88.4381 12.2955C87.8912 10.824 86.2212 8.1088 82.8072 8.1088C79.3932 8.1088 76.604 10.7754 76.604 14.6857C76.604 18.3741 79.3932 21.2645 83.1322 21.2645C84.2162 21.2701 85.2846 21.0062 86.2413 20.4966C87.198 19.987 88.0131 19.2476 88.6133 18.3449L86.371 16.8501C85.6178 17.9401 84.5959 18.668 83.1264 18.668ZM82.9006 10.645C84.047 10.645 85.0183 11.2172 85.3433 12.0405L79.4633 14.4813C79.3874 11.9393 81.4311 10.645 82.9006 10.645Z" fill="#202124"/>
</svg>
