<svg class="sFT5O indIKd gRAwSd" viewBox="0 0 24 24" focusable="false" height="20" width="20" xmlns="http://www.w3.org/2000/svg"><path d="M0 0h24v24H0z" fill="none"></path><path d="M17.5,12c0-3.04,2.46-5.5,5.5-5.5c-3.04,0-5.5-2.46-5.5-5.5c0,3.04-2.46,5.5-5.5,5.5C15.04,6.5,17.5,8.96,17.5,12z"></path><path d="M19.85,10.5C19.95,10.98,20,11.49,20,12c0,4.41-3.59,8-8,8s-8-3.59-8-8c0-4.41,3.59-8,8-8c0.51,0,1.02,0.05,1.5,0.15 l1.63-1.63C14.15,2.18,13.1,2,12,2C6.48,2,2,6.48,2,12c0,5.52,4.48,10,10,10s10-4.48,10-10c0-1.1-0.18-2.15-0.51-3.14L19.85,10.5z"></path><rect x="11" y="11" width="2" height="6"></rect><circle cx="12" cy="9" r="1"></circle></svg>