<svg class="_logoIconFull_h8bjx_127" width="140" height="24" viewBox="0 0 140 24" fill="none" xmlns="http://www.w3.org/2000/svg">
<g clip-path="url(#clip0_229_20020)">
<path d="M90.2222 18.5604V6.16461H94.4465C96.5066 6.16461 98.3246 7.6877 98.3246 9.85195C98.3246 12.0162 96.5066 13.5393 94.4465 13.5393H91.8156V18.5604H90.2222ZM94.4817 12.0162C95.0557 12.0162 95.6062 11.7882 96.012 11.3823C96.4179 10.9764 96.6459 10.4259 96.6459 9.85195C96.6459 9.27796 96.4179 8.72747 96.012 8.3216C95.6062 7.91572 95.0557 7.6877 94.4817 7.6877H91.8156V12.0162H94.4817Z" fill="#757575"></path>
<path d="M101.012 10.0778L100.944 11.2547H101.012C101.463 10.4755 102.537 9.80055 103.696 9.80055C105.86 9.80055 106.934 11.2722 106.934 13.3662V18.5604H105.341V13.6083C105.341 11.8498 104.459 11.2547 103.247 11.2547C101.862 11.2547 101.012 12.5694 101.012 13.868V18.5604H99.4204V6.16461H101.012V10.0778Z" fill="#757575"></path>
<path d="M116.971 14.3184C116.971 16.8979 115.153 18.8376 112.609 18.8376C110.065 18.8376 108.247 16.8979 108.247 14.3184C108.247 11.7389 110.065 9.80054 112.609 9.80054C115.153 9.80054 116.971 11.7389 116.971 14.3184ZM115.379 14.3184C115.382 12.3801 114.029 11.256 112.609 11.256C111.189 11.256 109.836 12.3801 109.836 14.3184C109.836 16.2568 111.189 17.3835 112.606 17.3835C114.024 17.3835 115.382 16.2608 115.382 14.3184H115.379Z" fill="#757575"></path>
<path d="M118.899 15.9809V11.5266H117.411V10.0765H118.899V7.48077H120.492V10.0765H122.568V11.5266H120.492V15.8551C120.492 16.8019 120.89 17.2402 121.634 17.2402C121.883 17.2524 122.133 17.2061 122.361 17.1049L122.915 18.4725C122.508 18.6374 122.072 18.7139 121.634 18.697C119.845 18.6957 118.899 17.7123 118.899 15.9809Z" fill="#757575"></path>
<path d="M132.121 14.3184C132.121 16.8979 130.303 18.8376 127.759 18.8376C125.214 18.8376 123.396 16.8979 123.396 14.3184C123.396 11.7389 125.214 9.80054 127.759 9.80054C130.303 9.80054 132.121 11.7389 132.121 14.3184ZM130.529 14.3184C130.529 12.3801 129.176 11.2546 127.759 11.2546C126.341 11.2546 124.986 12.3801 124.986 14.3184C124.986 16.2568 126.339 17.3835 127.756 17.3835C129.174 17.3835 130.532 16.2608 130.532 14.3184H130.529Z" fill="#757575"></path>
<path d="M132.831 16.4137L134.251 15.8253C134.702 16.8979 135.532 17.4173 136.551 17.4173C137.538 17.4173 138.247 16.9331 138.247 16.223C138.247 15.7901 137.987 15.3234 137.088 15.0975L135.374 14.6823C134.595 14.4916 133.106 13.8166 133.106 12.3273C133.106 10.7866 134.699 9.80054 136.464 9.80054C137.936 9.80054 139.217 10.4769 139.736 11.7741L138.351 12.3449C138.023 11.5482 137.243 11.2195 136.413 11.2195C135.512 11.2195 134.733 11.6253 134.733 12.3097C134.733 12.8508 135.183 13.1416 135.858 13.2972L137.538 13.6962C139.217 14.0939 139.876 15.1327 139.876 16.1716C139.876 17.6771 138.523 18.8376 136.533 18.8376C134.487 18.8376 133.327 17.6257 132.831 16.4137Z" fill="#757575"></path>
<path d="M29.7207 11.7389C29.7207 7.8257 33.0104 4.63883 36.9236 4.63883C37.8247 4.62417 38.7197 4.78977 39.556 5.12589C40.3922 5.46201 41.1528 5.96188 41.7932 6.59613L40.4256 7.96367C39.4877 7.05902 38.2306 6.56123 36.9277 6.57854C34.0708 6.57854 31.8376 8.87806 31.8376 11.7389C31.8376 14.5998 34.0708 16.898 36.9277 16.898C38.7808 16.898 39.8372 16.154 40.5122 15.4777C41.0668 14.9244 41.4293 14.125 41.5686 13.0429H36.9277V11.0978H43.4556C43.5294 11.4993 43.5643 11.907 43.5597 12.3152C43.5597 13.7693 43.1621 15.5697 41.8797 16.852C40.6339 18.1505 39.0392 18.8431 36.9277 18.8431C33.005 18.8377 29.7207 15.6522 29.7207 11.7389Z" fill="#757575"></path>
<path d="M48.8309 9.69507C46.3028 9.69507 44.2427 11.6172 44.2427 14.2657C44.2427 16.9142 46.3028 18.8377 48.8309 18.8377C51.359 18.8377 53.4191 16.898 53.4191 14.2657C53.4191 11.6334 51.359 9.69507 48.8309 9.69507ZM48.8309 17.0373C47.4458 17.0373 46.2514 15.8943 46.2514 14.2657C46.2514 12.6371 47.4458 11.4955 48.8309 11.4955C50.216 11.4955 51.4104 12.6209 51.4104 14.2657C51.4104 15.9105 50.216 17.0373 48.8309 17.0373Z" fill="#757575"></path>
<path d="M58.8407 9.69507C56.3125 9.69507 54.2524 11.6172 54.2524 14.2657C54.2524 16.9142 56.3125 18.8377 58.8407 18.8377C61.3688 18.8377 63.4289 16.898 63.4289 14.2657C63.4289 11.6334 61.3688 9.69507 58.8407 9.69507ZM58.8407 17.0373C57.4555 17.0373 56.2611 15.8943 56.2611 14.2657C56.2611 12.6371 57.4555 11.4955 58.8407 11.4955C60.2258 11.4955 61.4202 12.6209 61.4202 14.2657C61.4202 15.9105 60.2258 17.0373 58.8407 17.0373Z" fill="#757575"></path>
<path d="M71.1271 9.97237V10.715H71.0581C70.6077 10.1739 69.742 9.69373 68.6518 9.69373C66.3658 9.69373 64.2705 11.7024 64.2705 14.2819C64.2705 16.8615 66.3658 18.8363 68.6518 18.8363C69.742 18.8363 70.6077 18.3507 71.0581 17.7975H71.1271V18.4549C71.1271 20.2039 70.1924 21.1386 68.6856 21.1386C67.456 21.1386 66.6945 20.2553 66.3861 19.5154L64.6371 20.2431C64.9659 21.0464 65.5273 21.7331 66.2491 22.2151C66.9709 22.6971 67.8203 22.9525 68.6883 22.9484C71.0433 22.9484 73.0344 21.5633 73.0344 18.1857V9.97237H71.1271ZM68.8276 17.0373C67.4425 17.0373 66.2819 15.8767 66.2819 14.2833C66.2819 12.6899 67.4425 11.4955 68.8276 11.4955C70.2127 11.4955 71.2624 12.6736 71.2624 14.2833C71.2624 15.893 70.1924 17.0373 68.8249 17.0373H68.8276Z" fill="#757575"></path>
<path d="M76.4252 5.12445H74.4165V18.5604H76.4252V5.12445Z" fill="#757575"></path>
<path d="M81.9317 17.0373C80.9091 17.0373 80.1827 16.5692 79.7147 15.6521L85.8273 13.124L85.6231 12.6087C85.243 11.5861 84.0824 9.6991 81.7098 9.6991C79.3373 9.6991 77.3989 11.5522 77.3989 14.2697C77.3989 16.833 79.3373 18.8417 81.9357 18.8417C82.689 18.8456 83.4315 18.6622 84.0964 18.308C84.7613 17.9539 85.3277 17.44 85.7448 16.8127L84.1866 15.7739C83.6631 16.5314 82.9529 17.0373 81.9317 17.0373ZM81.7748 11.4616C82.5715 11.4616 83.2465 11.8593 83.4723 12.4315L79.386 14.1277C79.3332 12.3611 80.7535 11.4616 81.7748 11.4616Z" fill="#757575"></path>
<path d="M5.76223 5.76019C6.5154 5.76019 7.26119 5.90854 7.95702 6.19676C8.65286 6.48499 9.28511 6.90744 9.81768 7.44001C10.3502 7.97258 10.7727 8.60483 11.0609 9.30067C11.3492 9.9965 11.4975 10.7423 11.4975 11.4955V12.0162H0.549092C0.411084 12.0159 0.278832 11.9609 0.181246 11.8633C0.0836591 11.7657 0.0286775 11.6335 0.0283205 11.4955C0.0281428 10.7424 0.176322 9.9966 0.464398 9.30077C0.752475 8.60494 1.1748 7.97268 1.70727 7.4401C2.23973 6.90751 2.87189 6.48503 3.56765 6.19679C4.2634 5.90855 5.00913 5.76019 5.76223 5.76019Z" fill="#F6B704"></path>
<path d="M17.7536 6.28097C17.7536 7.03414 17.6053 7.77993 17.317 8.47576C17.0288 9.1716 16.6063 9.80385 16.0738 10.3364C15.5412 10.869 14.909 11.2914 14.2131 11.5797C13.5173 11.8679 12.7715 12.0162 12.0183 12.0162H11.4976V1.06783C11.4976 0.929712 11.5524 0.797253 11.6501 0.699589C11.7478 0.601925 11.8802 0.547058 12.0183 0.547058C12.7714 0.546881 13.5172 0.695062 14.213 0.983138C14.9088 1.27121 15.5411 1.69354 16.0737 2.226C16.6063 2.75846 17.0288 3.39063 17.317 4.08639C17.6052 4.78214 17.7536 5.52787 17.7536 6.28097Z" fill="#E54335"></path>
<path d="M17.2328 18.2723C15.7117 18.2723 14.2529 17.668 13.1774 16.5925C12.1018 15.5169 11.4976 14.0581 11.4976 12.537V12.0162H22.446C22.5841 12.0162 22.7165 12.0711 22.8142 12.1688C22.9119 12.2664 22.9667 12.3989 22.9667 12.537C22.9669 13.2901 22.8187 14.0359 22.5307 14.7317C22.2426 15.4275 21.8203 16.0598 21.2878 16.5924C20.7553 17.125 20.1232 17.5474 19.4274 17.8357C18.7317 18.1239 17.9859 18.2723 17.2328 18.2723Z" fill="#4280EF"></path>
<path d="M5.2417 17.7488C5.2417 16.9957 5.39006 16.25 5.6783 15.5542C5.96654 14.8585 6.38902 14.2263 6.9216 13.6938C7.45419 13.1614 8.08645 12.739 8.78228 12.451C9.4781 12.1629 10.2239 12.0147 10.977 12.0149H11.4977V22.9633C11.4974 23.1013 11.4424 23.2336 11.3448 23.3311C11.2472 23.4287 11.115 23.4837 10.977 23.4841C10.2238 23.4841 9.47801 23.3357 8.78217 23.0475C8.08634 22.7593 7.45409 22.3368 6.92152 21.8042C6.38895 21.2717 5.96649 20.6394 5.67827 19.9436C5.39005 19.2478 5.2417 18.502 5.2417 17.7488Z" fill="#34A353"></path>
</g>
<defs>
<clipPath id="clip0_229_20020">
<rect width="140" height="23.1304" fill="white" transform="translate(0 0.434753)"></rect>
</clipPath>
</defs>
</svg>