<svg class="_replayIcon_10ywg_113" width="16" height="18" viewBox="0 0 16 18" fill="none" xmlns="http://www.w3.org/2000/svg">
<path d="M8.12812 17.1275C7.11875 17.1275 6.16842 16.9336 5.27713 16.5458C4.38583 16.158 3.61021 15.6341 2.95025 14.9742C2.29029 14.3142 1.76641 13.5386 1.37859 12.6473C0.990781 11.756 0.796875 10.8057 0.796875 9.79629H2.74922C2.74922 11.2705 3.27715 12.5355 4.33301 13.5914C5.38887 14.6473 6.65391 15.1752 8.12812 15.1752C9.60234 15.1752 10.8674 14.6473 11.9232 13.5914C12.9791 12.5355 13.507 11.2705 13.507 9.79629C13.507 8.32207 12.9791 7.05703 11.9232 6.00117C10.8674 4.94531 9.59975 4.41738 8.12036 4.41738H8.12812L9.1043 5.39356L7.72969 6.80801L4.38281 3.46113L7.72969 0.114258L9.1043 1.48887L8.1082 2.46504H8.12812C9.1375 2.46504 10.0878 2.65895 10.9791 3.04676C11.8704 3.43457 12.646 3.95846 13.306 4.61841C13.966 5.27837 14.4898 6.054 14.8777 6.94529C15.2655 7.83658 15.4594 8.78691 15.4594 9.79629C15.4594 10.8057 15.2655 11.756 14.8777 12.6473C14.4898 13.5386 13.966 14.3142 13.306 14.9742C12.646 15.6341 11.8704 16.158 10.9791 16.5458C10.0878 16.9336 9.1375 17.1275 8.12812 17.1275Z" fill="currentColor"></path>
</svg>